<?xml version="1.0" standalone="no"?>
<!DOCTYPE svg PUBLIC "-//W3C//DTD SVG 1.1//EN" "http://www.w3.org/Graphics/SVG/1.1/DTD/svg11.dtd" >
<svg>
<metadata>
Created by FontForge 20090914 at Sat Jul 16 23:34:54 2022
 By www-data
Diner-Skinny (c) 1992 by David Rakowski. All Rights Reserved. 
</metadata>
<defs>
<font id="Diner-Skinny" horiz-adv-x="171" >
  <font-face 
    font-family="Diner-Skinny"
    font-weight="400"
    font-style="italic"
    font-stretch="normal"
    units-per-em="1000"
    panose-1="0 0 0 0 0 0 0 0 0 0"
    ascent="800"
    descent="-200"
    x-height="790"
    cap-height="790"
    bbox="10.998 -36 350 819.001"
    underline-thickness="50"
    underline-position="-55"
    slope="17560"
    unicode-range="U+0020-U+F002"
  />
<missing-glyph 
 />
    <glyph glyph-name=".notdef" 
 />
    <glyph glyph-name="exclam" unicode=" " horiz-adv-x="145" 
 />
    <glyph glyph-name="exclam" unicode="&#xa0;" horiz-adv-x="145" 
 />
    <glyph glyph-name="quotedbl" unicode="!" horiz-adv-x="60" 
d="M32 0c-4.66699 0 -8.66699 1.5 -12 4.5s-5 6.83301 -5 11.5s1.66699 8.66699 5 12s7.33301 5 12 5s8.66699 -1.66699 12 -5s5 -7.33301 5 -12s-1.66699 -8.5 -5 -11.5s-7.33301 -4.5 -12 -4.5v0zM25 73v717h8v-717h-8v0z" />
    <glyph glyph-name="numbersign" unicode="&#x22;" horiz-adv-x="113" 
d="M18 747c2 6 3.49805 11.833 4.49805 17.5s1.5 10.5 1.5 14.5v2.5v1.5c-2 1.33301 -4 3 -6 5s-3.66699 4.33301 -5 7c-0.666992 0.666992 -1.16699 1.66699 -1.5 3s-0.5 2.33301 -0.5 3c0 4.66699 1.83301 8.83398 5.5 12.501s7.83398 5.5 12.501 5.5
s8.83398 -1.83301 12.501 -5.5s5.5 -7.83398 5.5 -12.501v-0.5v-0.5c0 -5.33301 -2 -11.5 -6 -18.5s-11.667 -18.5 -23 -34.5v0zM71.998 747c2 6 3.49805 11.833 4.49805 17.5s1.5 10.5 1.5 14.5v2.5v1.5c-2 1.33301 -4 3 -6 5s-3.66699 4.33301 -5 7
c-0.666992 0.666992 -1.16699 1.66699 -1.5 3s-0.5 2.33301 -0.5 3c0 4.66699 1.83301 8.83398 5.5 12.501s7.83398 5.5 12.501 5.5s8.83398 -1.83301 12.501 -5.5s5.5 -7.83398 5.5 -12.501v-0.5v-0.5c0 -5.33301 -2 -11.5 -6 -18.5s-11.667 -18.5 -23 -34.5v0z" />
    <glyph glyph-name="dollar" unicode="#" horiz-adv-x="145" 
 />
    <glyph glyph-name="percent" unicode="$" horiz-adv-x="145" 
 />
    <glyph glyph-name="ampersand" unicode="%" horiz-adv-x="145" 
 />
    <glyph glyph-name="quotesingle" unicode="&#x26;" horiz-adv-x="220" 
d="M174 214l0.000976562 -147.001v-1.5v-1.5c-0.666992 -16 -8 -30.667 -22 -44s-30.333 -20 -49 -20h-1.5h-1.5c-20.667 0.666992 -39.5 6.16699 -56.5 16.5s-25.5 27.166 -25.5 50.499v258c0 15.333 3.66699 29 11 41s20.666 21.333 39.999 28
c-14.667 2.66699 -25.667 8.33398 -33 17.001s-12 18.334 -14 29.001c-1.33301 3.33301 -2.16602 7 -2.49902 11s-0.5 7.66699 -0.5 11v263c0 17.333 6.83301 31.666 20.5 42.999s28.834 18.333 45.501 21c2.66699 0 5.16699 0.166992 7.5 0.5s4.5 0.5 6.5 0.5
c19.333 0 37.166 -5.83301 53.499 -17.5s24.5 -27.5 24.5 -47.5v-95h-7v95c0 16.667 -7.33301 30.667 -22 42s-31 17 -49 17s-34.333 -5.66699 -49 -17s-22 -25.666 -22 -42.999v-262v-6c0 -2 0.333008 -3.66699 1 -5c1.33301 -14 6.33301 -26.5 15 -37.5s23 -16.5 43 -16.5
h48v-5h-48c-2.66699 0 -5.66699 -0.333008 -9 -1l-10 -2c-10.667 -4 -20.334 -11.167 -29.001 -21.5s-13 -24.833 -13 -43.5v-257c0 -16.667 5.5 -29.834 16.5 -39.501s23.167 -16.167 36.5 -19.5c3.33301 -0.666992 6.5 -1.16699 9.5 -1.5s5.83301 -0.5 8.5 -0.5h3.5h2.5
c17.333 1.33301 32.333 7.83301 45 19.5s19 25.834 19 42.501v146h-54v6h89v-6h-28v0z" />
    <glyph glyph-name="parenleft" unicode="'" horiz-adv-x="59" 
d="M18 747c2 6 3.49805 11.833 4.49805 17.5s1.5 10.5 1.5 14.5v2.5v1.5c-2 1.33301 -4 3 -6 5s-3.66699 4.33301 -5 7c-0.666992 0.666992 -1.16699 1.66699 -1.5 3s-0.5 2.33301 -0.5 3c0 4.66699 1.83301 8.83398 5.5 12.501s7.83398 5.5 12.501 5.5
s8.83398 -1.83301 12.501 -5.5s5.5 -7.83398 5.5 -12.501v-0.5v-0.5c0 -5.33301 -2 -11.5 -6 -18.5s-11.667 -18.5 -23 -34.5v0z" />
    <glyph glyph-name="parenright" unicode="(" horiz-adv-x="114" 
d="M80 0l-12.499 48.0039c-6.33301 24.667 -13.166 54 -20.499 88c-4.66699 18.667 -8.83398 38.334 -12.501 59.001l-10.5 62c-3.33301 23.333 -6.16602 46.166 -8.49902 68.499s-3.5 43.5 -3.5 63.5c0 20.667 1 42.667 3 66s4.66699 47 8 71c3.33301 22 7 43.833 11 65.5
s8.33301 42.167 13 61.5c7.33301 34 14.166 63.5 20.499 88.5s10.5 41.167 12.5 48.5h9c-2 -8.66699 -6.16699 -25.334 -12.5 -50.001s-13.166 -53.667 -20.499 -87l-12 -62.5c-4 -21.667 -7.66699 -43.834 -11 -66.501c-3.33301 -23.333 -6 -46.5 -8 -69.5
s-3 -44.833 -3 -65.5c0 -20 1.16699 -41.167 3.5 -63.5s5.16602 -44.833 8.49902 -67.5c2.66699 -20.667 6 -41.5 10 -62.5s8 -40.833 12 -59.5c7.33301 -32.667 14.166 -61.334 20.499 -86.001s10.5 -41.334 12.5 -50.001h-9v0z" />
    <glyph glyph-name="asterisk" unicode=")" horiz-adv-x="114" 
d="M24 0l-8.99902 -0.00390625c2 8.66699 6.16699 25.334 12.5 50.001s13.166 53.334 20.499 86.001c4 18.667 8 38.5 12 59.5s7.33301 41.833 10 62.5c3.33301 22.667 6.16602 45.167 8.49902 67.5s3.5 43.5 3.5 63.5c0 20.667 -1 42.5 -3 65.5s-4.66699 46.167 -8 69.5
c-3.33301 22.667 -7 44.834 -11 66.501l-12 62.5c-7.33301 33.333 -14.166 62.333 -20.499 87s-10.5 41.334 -12.5 50.001h9c2 -7.33301 6.16699 -23.5 12.5 -48.5s13.166 -54.5 20.499 -88.5c4.66699 -19.333 9 -39.833 13 -61.5s7.66699 -43.5 11 -65.5
c3.33301 -24 6 -47.667 8 -71s3 -45.333 3 -66c0 -20 -1.16699 -41.167 -3.5 -63.5s-5.16602 -45.166 -8.49902 -68.499l-10.5 -62c-3.66699 -20.667 -7.83398 -40.334 -12.501 -59.001c-7.33301 -34 -14.166 -63.333 -20.499 -88l-12.5 -48v0z" />
    <glyph glyph-name="plus" unicode="*" horiz-adv-x="145" 
 />
    <glyph glyph-name="comma" unicode="+" horiz-adv-x="145" 
 />
    <glyph glyph-name="hyphen" unicode="," horiz-adv-x="59" 
d="M18 -36c2 6.66699 3.49805 12.833 4.49805 18.5s1.5 10.5 1.5 14.5v2v1c-2 1.33301 -4 3 -6 5s-3.66699 4.33301 -5 7c-0.666992 0.666992 -1.16699 1.66699 -1.5 3s-0.5 2.33301 -0.5 3c0 4.66699 1.83301 8.83398 5.5 12.501s7.83398 5.5 12.501 5.5
s8.83398 -1.83301 12.501 -5.5s5.5 -7.83398 5.5 -12.501v-0.5v-0.5c0 -5.33301 -2 -11.333 -6 -18s-11.667 -18 -23 -34v-1z" />
    <glyph glyph-name="period" unicode="-" 
d="M20 335v5h135v-5h-135v0z" />
    <glyph glyph-name="slash" unicode="." horiz-adv-x="59" 
d="M29 0c-4.66699 0 -8.83398 1.83301 -12.501 5.5s-5.5 7.83398 -5.5 12.501s1.83301 8.83398 5.5 12.501s7.83398 5.5 12.501 5.5s8.83398 -1.83301 12.501 -5.5s5.5 -7.83398 5.5 -12.501s-1.83301 -8.83398 -5.5 -12.501s-7.83398 -5.5 -12.501 -5.5v0z" />
    <glyph glyph-name="zero" unicode="/" horiz-adv-x="145" 
 />
    <glyph glyph-name="one" unicode="0" horiz-adv-x="202" 
d="M100 0c-20.667 0.666992 -39.334 5.50195 -56.001 14.502s-25 27.167 -25 54.5v655c0 19.333 8.33301 35.166 25 47.499s35.667 18.5 57 18.5s39.5 -6.33301 54.5 -19s22.5 -28.334 22.5 -47.001v-656c0 -26 -7.16699 -43.667 -21.5 -53s-30.166 -14.333 -47.499 -15
h-2.5h-2.5h-2h-2v0zM167 724.002c0 18 -6.83301 32.334 -20.5 43.001s-28.834 16 -45.501 16c-17.333 0 -33.333 -5.66699 -48 -17s-22 -25 -22 -41v-656c0 -20.667 5.83301 -36.334 17.5 -47.001s28.834 -16 51.501 -16c22 0 38.667 5.33301 50 16s17 26 17 46v656v0z" />
    <glyph glyph-name="two" unicode="1" horiz-adv-x="52" 
d="M18 0v790h10v-790h-10v0z" />
    <glyph glyph-name="three" unicode="2" horiz-adv-x="191" 
d="M107 292c-2.66699 0 -5.66699 -0.165039 -9 -0.498047s-6.33301 -0.833008 -9 -1.5c-15.333 -4 -29.333 -11.5 -42 -22.5s-19 -23.833 -19 -38.5v-225h144v-4h-153v230c0 17.333 6.83301 31.666 20.5 42.999s28.5 19 44.5 23l11.5 2c3.66699 0.666992 7.5 1 11.5 1
c15.333 0.666992 29 7.5 41 20.5s18 36.5 18 70.5v335c0 16.667 -6.5 30.5 -19.5 41.5s-28.833 16.5 -47.5 16.5c-19.333 0 -35.833 -5.66699 -49.5 -17s-20.5 -25.333 -20.5 -42v-95h-10v96c0 17.333 7.5 32.5 22.5 45.5s33.833 19.5 56.5 19.5
c2 0 4.16699 -0.166992 6.5 -0.5s4.83301 -0.5 7.5 -0.5c16 -2.66699 30.667 -9.33398 44 -20.001s20 -25.667 20 -45v-335c0 -26.667 -6 -49.5 -18 -68.5s-29 -28.5 -51 -28.5v0z" />
    <glyph glyph-name="four" unicode="3" horiz-adv-x="186" 
d="M120 390c14 -6.66699 24.499 -14.1709 31.499 -22.5039s11.833 -17.166 14.5 -26.499c2 -5.33301 3.16699 -10.833 3.5 -16.5s0.5 -11.167 0.5 -16.5v-235c0 -20.667 -8 -38 -24 -52s-34 -21 -54 -21h-1.5h-0.5h-1.5h-1.5c-18.667 0 -35.5 6.33301 -50.5 19
s-22.5 29.334 -22.5 50.001v89h8v-89c0 -17.333 6.66699 -32.166 20 -44.499s29.333 -18.5 48 -18.5s35 5.83301 49 17.5s21 27.167 21 46.5v239c0 20.667 -4.5 38.334 -13.5 53.001s-23.833 22 -44.5 22h-79v12h81c17.333 0 31 7 41 21s15 34.667 15 62v244
c0 14 -6.16699 26.667 -18.5 38s-26.833 17.666 -43.5 18.999h-0.5h-1.5h-1.5h-0.5c-18 0 -33.667 -5.16699 -47 -15.5s-20 -23.833 -20 -40.5v-98h-11v97c0 19.333 7.66699 35.333 23 48s33 19 53 19h3.5h2.5c19.333 -1.33301 36.333 -8.16602 51 -20.499
s22 -27.833 22 -46.5v-244c0 -22 -3.16699 -40.167 -9.5 -54.5s-20.166 -25.833 -41.499 -34.5v0z" />
    <glyph glyph-name="five" unicode="4" horiz-adv-x="225" 
d="M165 255v-255h-10v255h-140v14l86 521h9l-86 -529h131v529h10v-529h42v-6h-42v0z" />
    <glyph glyph-name="six" unicode="5" horiz-adv-x="191" 
d="M24 784v-303.001h70c22.667 0 40.667 -8.66699 54 -26s21 -36.333 23 -57v-4v-4v-323c0 -17.333 -6.83301 -32.166 -20.5 -44.499s-28.834 -19.5 -45.501 -21.5c-2 -0.666992 -3.83301 -1 -5.5 -1h-4.5c-20.667 0 -39.334 6.66699 -56.001 20s-25 29.333 -25 48v89h8v-89
c0 -16.667 7.33301 -31 22 -43s31.334 -18.333 50.001 -19c19.333 0 35.833 6 49.5 18s20.5 26.667 20.5 44v322c0 3.33301 -0.166992 6.83301 -0.5 10.5s-1.16602 7.16699 -2.49902 10.5c-4 16 -11.833 30.667 -23.5 44s-26.5 20 -44.5 20h-77v315h161v-2.5v-3.5h-153v0z
" />
    <glyph glyph-name="seven" unicode="6" horiz-adv-x="192" 
d="M169 629l-0.00195312 94.9971c0 2 -0.166992 4 -0.5 6s-0.833008 4.33301 -1.5 7c-2.66699 11.333 -9.66699 21.666 -21 30.999s-26 14 -44 14c-22 0 -40 -5.66699 -54 -17s-21.667 -23.666 -23 -36.999v-1.5v-1.5v-299c6.66699 10.667 13.834 19.167 21.501 25.5
s15.5 11.166 23.5 14.499c5.33301 2 10.833 3.5 16.5 4.5s11.167 1.5 16.5 1.5c3.33301 0 7 -0.333008 11 -1s8 -1.66699 12 -3c11.333 -4.66699 21.833 -13.167 31.5 -25.5s14.5 -30.5 14.5 -54.5v-320c0 -20.667 -8.16699 -37.167 -24.5 -49.5s-34.833 -18.5 -55.5 -18.5
c-21.333 0 -39.666 6.33301 -54.999 19s-23 29.334 -23 50.001v656c0 16.667 7.66699 30.834 23 42.501s32.333 18.834 51 21.501c2 0 4.33301 0.166992 7 0.5s5 0.5 7 0.5c20.667 0 38.667 -6.16699 54 -18.5s23 -28.166 23 -47.499v-95h-10v0zM161.998 388.997v3.99805v4
c-2 16.667 -7.83301 31.834 -17.5 45.501s-23.167 21.167 -40.5 22.5h-1.5h-1.5c-4 0 -8.83301 -0.666992 -14.5 -2s-11.167 -3.33301 -16.5 -6c-11.333 -5.33301 -21.666 -13.5 -30.999 -24.5s-14 -25.167 -14 -42.5v-322c0 -18 6.66699 -32.333 20 -43
s28.666 -16 45.999 -16h1.5h1.5c16.667 0.666992 32.167 6.83398 46.5 18.501s21.5 25.167 21.5 40.5v321v0z" />
    <glyph glyph-name="eight" unicode="7" horiz-adv-x="189" 
d="M24 0h-9l150 782h-134v8h146l-153 -790v0z" />
    <glyph glyph-name="nine" unicode="8" horiz-adv-x="192" 
d="M95 -1c-22.667 0.666992 -41.3359 7.16602 -56.0029 19.499s-22 28.5 -22 48.5v270c0 8.66699 1.83301 16.167 5.5 22.5s8.83398 12.5 15.501 18.5l12.5 10l14.5 11c-16 6.66699 -27.667 15.334 -35 26.001s-11.666 21.667 -12.999 33v3.5v2.5v259
c0 19.333 7.83301 35 23.5 47s32.834 18.667 51.501 20h2.5h2.5c20 -0.666992 37.5 -6 52.5 -16s22.5 -26.667 22.5 -50v-260c0 -19.333 -4.33301 -33.5 -13 -42.5s-20.667 -16.833 -36 -23.5c15.333 -8 27.333 -16.667 36 -26s13 -21 13 -35v-269
c0 -20.667 -7 -37.167 -21 -49.5s-32.667 -18.5 -56 -18.5v-1zM163.998 336.999c0 19.333 -6.49902 33.5 -19.499 42.5s-29.167 13.5 -48.5 13.5h-4.5c-1.66699 0 -3.5 -0.333008 -5.5 -1c-14.667 -2 -28.334 -8.33301 -41.001 -19s-19 -23 -19 -37v-268
c0 -18 7.33301 -33.167 22 -45.5s30.667 -18.5 48 -18.5c18 0 33.833 6 47.5 18s20.5 27.333 20.5 46v269v0zM163.999 723.999c0 13.333 -5.66699 25.5 -17 36.5s-24 17.833 -38 20.5c-2 0.666992 -4.16699 1.16699 -6.5 1.5s-4.5 0.5 -6.5 0.5
c-18.667 0 -35 -5.83301 -49 -17.5s-21 -26.167 -21 -43.5v-258c0 -18.667 6.5 -34 19.5 -46s29.833 -18 50.5 -18c21.333 0 38 6.5 50 19.5s18 27.833 18 44.5v260v0z" />
    <glyph glyph-name="colon" unicode="9" horiz-adv-x="194" 
d="M94 0c-20.667 0 -39 6.16602 -55 18.499s-24 28.833 -24 49.5v90h7v-90v-2.5v-2.5c1.33301 -14.667 8.16602 -27.834 20.499 -39.501s29.166 -17.5 50.499 -17.5c19.333 0 36.333 6 51 18s22 26.667 22 44v293c-8.66699 -11.333 -18 -20.333 -28 -27s-20 -11 -30 -13
c-4 -1.33301 -7.66699 -2.16602 -11 -2.49902s-6.66602 -0.5 -9.99902 -0.5c-20 0 -35.5 4.83301 -46.5 14.5s-18.167 20.167 -21.5 31.5c-1.33301 3.33301 -2.16602 6.5 -2.49902 9.5s-0.5 6.16699 -0.5 9.5v341c0 18.667 7.66699 33.834 23 45.501s32 18.5 50 20.5h4h4h6
c2 0 4 -0.333008 6 -1c16 -2 30.833 -8.5 44.5 -19.5s20.5 -26.167 20.5 -45.5v-656c0 -19.333 -8.16699 -35.5 -24.5 -48.5s-34.833 -19.5 -55.5 -19.5v0zM166 722.999c0 16 -6 29.332 -18 39.999s-25 17.334 -39 20.001c-2 0 -4 0.166992 -6 0.5s-4 0.5 -6 0.5h-1.5h-1.5
c-16.667 -0.666992 -32.167 -6 -46.5 -16s-21.5 -24.333 -21.5 -43v-341c0 -16.667 5.16699 -30.667 15.5 -42s25.5 -17 45.5 -17c3.33301 0 7 0.333008 11 1s8 1.66699 12 3c14 4 26.833 11 38.5 21s17.5 21 17.5 33v340v0z" />
    <glyph glyph-name="semicolon" unicode=":" horiz-adv-x="83" 
d="M35 73c-4.66699 0 -8.83398 1.83301 -12.501 5.5s-5.5 7.83398 -5.5 12.501s1.83301 8.83398 5.5 12.501s7.83398 5.5 12.501 5.5s8.83398 -1.83301 12.501 -5.5s5.5 -7.83398 5.5 -12.501s-1.83301 -8.83398 -5.5 -12.501s-7.83398 -5.5 -12.501 -5.5v0zM35 286
c-4.66699 0 -8.83398 1.83301 -12.501 5.5s-5.5 7.83398 -5.5 12.501s1.83301 8.83398 5.5 12.501s7.83398 5.5 12.501 5.5s8.83398 -1.83301 12.501 -5.5s5.5 -7.83398 5.5 -12.501s-1.83301 -8.83398 -5.5 -12.501s-7.83398 -5.5 -12.501 -5.5v0z" />
    <glyph glyph-name="less" unicode=";" horiz-adv-x="83" 
d="M36 37c2 6 3.49805 11.833 4.49805 17.5s1.5 10.5 1.5 14.5v2.5v1.5c-2 1.33301 -4 3 -6 5s-3.66699 4.33301 -5 7c-0.666992 0.666992 -1.16699 1.66699 -1.5 3s-0.5 2.33301 -0.5 3c0 4.66699 1.83301 8.83398 5.5 12.501s7.83398 5.5 12.501 5.5
s8.83398 -1.83301 12.501 -5.5s5.5 -7.83398 5.5 -12.501v-0.5v-0.5c0 -5.33301 -2 -11.5 -6 -18.5s-11.667 -18.5 -23 -34.5v0zM46.998 286c-4.66699 0 -8.83398 1.83301 -12.501 5.5s-5.5 7.83398 -5.5 12.501s1.83301 8.83398 5.5 12.501s7.83398 5.5 12.501 5.5
s8.83398 -1.83301 12.501 -5.5s5.5 -7.83398 5.5 -12.501s-1.83301 -8.83398 -5.5 -12.501s-7.83398 -5.5 -12.501 -5.5v0z" />
    <glyph glyph-name="equal" unicode="&#x3c;" horiz-adv-x="145" 
 />
    <glyph glyph-name="greater" unicode="=" horiz-adv-x="145" 
 />
    <glyph glyph-name="question" unicode="&#x3e;" horiz-adv-x="145" 
 />
    <glyph glyph-name="at" unicode="?" horiz-adv-x="203" 
d="M96 0c-4.66699 0 -8.83398 1.83301 -12.501 5.5s-5.5 7.83398 -5.5 12.501s1.83301 8.83398 5.5 12.501s7.83398 5.5 12.501 5.5s8.83398 -1.83301 12.501 -5.5s5.5 -7.83398 5.5 -12.501s-1.83301 -8.83398 -5.5 -12.501s-7.83398 -5.5 -12.501 -5.5v0zM101 210
l-0.00390625 -137.004h-9v146c4.66699 0.666992 10.334 2.16699 17.001 4.5s13.334 5.5 20.001 9.5c12 6 22.833 14.833 32.5 26.5s14.5 26.834 14.5 45.501v418c0 16.667 -7 30.5 -21 41.5s-29.667 17.167 -47 18.5h-1.5h-0.5h-1.5h-1.5
c-19.333 0 -35.833 -5.83301 -49.5 -17.5s-21.167 -24.5 -22.5 -38.5v-1.5v-1.5v-94h-8v94c0 18 8.33301 33.5 25 46.5s36.334 19.5 59.001 19.5v0v0c0.666992 0 4.83398 -0.333008 12.501 -1s16.5 -3 26.5 -7c9.33301 -4 18 -10.5 26 -19.5s12 -22.167 12 -39.5v-420
c0 -21.333 -5 -38.166 -15 -50.499s-21.333 -21.833 -34 -28.5c-6 -3.33301 -12 -6.16602 -18 -8.49902s-11.333 -4.16602 -16 -5.49902v0z" />
    <glyph glyph-name="A" unicode="@" horiz-adv-x="145" 
 />
    <glyph glyph-name="B" unicode="A" horiz-adv-x="229" 
d="M207 0l-39 330h-97l-37 -330h-8l37 330h-44v5h46l54 455h6l87 -790h-5v0zM122 761l-51 -426h96l-45 426v0z" />
    <glyph glyph-name="C" unicode="B" horiz-adv-x="244" 
d="M160 0l-90.999 -0.00195312v330h-52v5h52v455h87c17.333 0 32.5 -5.66699 45.5 -17s19.5 -27.666 19.5 -48.999v-336c0 -12 -3.33301 -22.333 -10 -31s-17.334 -17 -32.001 -25c12.667 -4 23.5 -10.667 32.5 -20s13.5 -24.666 13.5 -45.999v-198
c0 -18.667 -6.66699 -34.667 -20 -48s-28.333 -20 -45 -20v0zM218.001 264.998c0 14.667 -3.16797 26.5 -9.50098 35.5s-13.166 15.833 -20.499 20.5c-5.33301 3.33301 -10.5 5.66602 -15.5 6.99902s-8.83301 2 -11.5 2h-85v-326h83c14.667 0 27.167 5.33301 37.5 16
s16.833 22.334 19.5 35.001c0.666992 2 1.16699 4.16699 1.5 6.5s0.5 4.5 0.5 6.5v197v0zM213 723.998c0 18.667 -5.5 33.333 -16.5 44s-24.5 16 -40.5 16h-80v-449h84h1.5h1.5c11.333 0.666992 22 6 32 16s16 21 18 33v2.5v2.5v335v0z" />
    <glyph glyph-name="D" unicode="C" horiz-adv-x="186" 
d="M93 0c-3.33301 0 -6.83203 0.166016 -10.499 0.499023s-7.5 0.833008 -11.5 1.5c-13.333 2.66699 -25.666 9 -36.999 19s-17 25.667 -17 47v656c0 21.333 7.16699 37.333 21.5 48s30.166 16.667 47.499 18h2.5h2.5h2.5h2.5c18 -1.33301 34.333 -8.33301 49 -21
s22 -27.667 22 -45v-91h-5v91c0 14.667 -6.66699 28 -20 40s-27.666 19 -42.999 21h-4h-4c-18.667 0 -32.834 -4.16699 -42.501 -12.5s-16.5 -17.833 -20.5 -28.5l-2 -10c-0.666992 -3.33301 -1 -6.66602 -1 -9.99902v-657c0 -20 6 -35 18 -45s25.333 -15.667 40 -17
c2 -0.666992 3.83301 -1 5.5 -1h4.5c19.333 0 36.166 5.66699 50.499 17s21.5 27.333 21.5 48v85h7v-86c0 -18 -6.83301 -33.833 -20.5 -47.5s-31.5 -20.5 -53.5 -20.5h-2h-3v0z" />
    <glyph glyph-name="E" unicode="D" horiz-adv-x="195" 
d="M113 0h-87.999v790h89c17.333 0 33 -6.33301 47 -19s21 -28.667 21 -48v-656c0 -17.333 -5.33301 -32.833 -16 -46.5s-28.334 -20.5 -53.001 -20.5v0zM174.001 724c0 11.333 -3.83301 21.667 -11.5 31s-16.167 16.666 -25.5 21.999c-4 2 -8 3.66699 -12 5
s-7.66699 2 -11 2h-81v-777h79c21.333 0 37 6.33301 47 19s15 26.334 15 41.001v657v0z" />
    <glyph glyph-name="F" unicode="E" horiz-adv-x="230" 
d="M65 0v330h-49v5h48v455h143v-6h-133v-449h137v-5h-137v-324h137v-6h-146v0z" />
    <glyph glyph-name="G" unicode="F" horiz-adv-x="225" 
d="M75 328v-328h-9v328h-46v7h46v455h141v-8h-132v-447h134v-7h-134v0z" />
    <glyph glyph-name="H" unicode="G" horiz-adv-x="195" 
d="M89 0c-19.333 0 -36.668 6.49805 -52.001 19.498s-23 29.167 -23 48.5v656c0 21.333 7.33301 37.333 22 48s31 16.667 49 18h4h4c21.333 0 39.5 -5.66699 54.5 -17s22.5 -27.666 22.5 -48.999v-90h-7v90c0 2 -0.166992 4.33301 -0.5 7s-0.833008 5 -1.5 7
c-4 12 -12 22.833 -24 32.5s-26.667 14.5 -44 14.5c-20.667 0 -37.667 -5.83301 -51 -17.5s-20 -26.167 -20 -43.5v-656c0 -19.333 6.83301 -34.166 20.5 -44.499s29.5 -15.5 47.5 -15.5c21.333 0 39 5.5 53 16.5s21 25.833 21 44.5v261h-51v5h12h19h12h14v-267
c0 -20.667 -8.16699 -37.167 -24.5 -49.5s-35.166 -18.5 -56.499 -18.5v0z" />
    <glyph glyph-name="I" unicode="H" horiz-adv-x="251" 
d="M215 0v328h-145v-328h-8v328h-41v7h40v455h10v-455h143v455h9v-790h-8v0z" />
    <glyph glyph-name="J" unicode="I" horiz-adv-x="52" 
d="M18 0v790h10v-790h-10v0z" />
    <glyph glyph-name="K" unicode="J" horiz-adv-x="188" 
d="M92 0c-20.667 0 -38.667 6.16699 -54 18.5s-23 28.833 -23 49.5v90h9v-90c0 -16 6.5 -30 19.5 -42s28.833 -18.333 47.5 -19h1.5h0.5h2.5h2.5c16.667 1.33301 31.667 7.5 45 18.5s20 25.167 20 42.5v722h11v-722c0 -20 -7.16699 -35.667 -21.5 -47s-29.833 -18 -46.5 -20
c-2.66699 -0.666992 -5.16699 -1 -7.5 -1h-6.5v0z" />
    <glyph glyph-name="L" unicode="K" horiz-adv-x="307" 
d="M214 68v198.003c0 2 -0.166992 4.16699 -0.5 6.5s-0.5 4.5 -0.5 6.5c-2 12 -7.66699 23.167 -17 33.5s-23.333 15.5 -42 15.5h-81v-328h-1h-2v0h-1h-2.5h-1.5v328h-46v7h46v455h7v-455h81c18.667 0 33.667 4.83301 45 14.5s17 22.834 17 39.501v401h7v-401v-4
c0 -1.33301 -0.333008 -2.66602 -1 -3.99902c-1.33301 -11.333 -5.83301 -21.833 -13.5 -31.5s-18.5 -15.5 -32.5 -17.5c12 -1.33301 22.833 -7.5 32.5 -18.5s14.5 -26.833 14.5 -47.5v-198c0 -16.667 3.16699 -29.334 9.5 -38.001s13.5 -14.667 21.5 -18
c4.66699 -2.66699 9.5 -4.33398 14.5 -5.00098s8.83301 -1 11.5 -1l1 -7c-3.33301 0.666992 -6.83301 1.16699 -10.5 1.5s-7.5 1.16602 -11.5 2.49902c-11.333 3.33301 -21.5 9.66602 -30.5 18.999s-13.5 24.666 -13.5 45.999v0z" />
    <glyph glyph-name="M" unicode="L" horiz-adv-x="170" 
d="M14 0v790h8v-784h132v-6h-140v0z" />
    <glyph glyph-name="N" unicode="M" horiz-adv-x="378" 
d="M342 0v740l-158 -740l-153 735v-735h-9v790h10l152 -748l159 748h7v-790h-8v0z" />
    <glyph glyph-name="O" unicode="N" horiz-adv-x="209" 
d="M174 0l-138 735v-735h-10v790h11l140 -753v753h9v-790h-12v0z" />
    <glyph glyph-name="P" unicode="O" horiz-adv-x="202" 
d="M100 0c-20.667 0.666992 -39.334 5.50195 -56.001 14.502s-25 27.167 -25 54.5v655c0 19.333 8.33301 35.166 25 47.499s35.667 18.5 57 18.5s39.5 -6.33301 54.5 -19s22.5 -28.334 22.5 -47.001v-656c0 -26 -7.16699 -43.667 -21.5 -53s-30.166 -14.333 -47.499 -15
h-2.5h-2.5h-2h-2v0zM169 724.002c0 17.333 -6.5 31.501 -19.5 42.501s-27.5 17.167 -43.5 18.5h-2.5h-2.5h-2.5h-2.5c-16.667 -1.33301 -32 -7.83301 -46 -19.5s-21 -25.167 -21 -40.5v-656c0 -20.667 6.16699 -36.334 18.5 -47.001s29.833 -16 52.5 -16
c22 0 39 5.33301 51 16s18 26 18 46v656v0z" />
    <glyph glyph-name="Q" unicode="P" horiz-adv-x="250" 
d="M147 328h-75.001v-328h-9v328h-48v7h48v455h85h8.5c3 0 6.16699 -0.333008 9.5 -1c13.333 -1.33301 25.5 -6.5 36.5 -15.5s16.5 -25.5 16.5 -49.5v-334c0 -17.333 -5.66699 -32 -17 -44s-29.666 -18 -54.999 -18v0zM209.999 724c0 24.667 -6.33301 40.833 -19 48.5
s-27 11.5 -43 11.5h-76v-449h74c18 0 33.167 4.5 45.5 13.5s18.5 22.833 18.5 41.5v334v0z" />
    <glyph glyph-name="R" unicode="Q" horiz-adv-x="207" 
d="M201 2l-40.001 33.0029c-6 -9.33301 -12.833 -16.5 -20.5 -21.5s-15.167 -8.5 -22.5 -10.5c-4 -1.33301 -7.83301 -2.16602 -11.5 -2.49902s-7.5 -0.5 -11.5 -0.5c-20.667 0 -37.667 5 -51 15s-20 27.667 -20 53v657c0 22 7 38 21 48s29.333 15.667 46 17h2.5h2.5h2.5
h2.5c18.667 -0.666992 35.5 -6.33398 50.5 -17.001s22.5 -27.334 22.5 -50.001v-656c0 -2.66699 -0.166992 -5.33398 -0.5 -8.00098s-0.833008 -5.33398 -1.5 -8.00098c-0.666992 -1.33301 -1.66699 -2.83301 -3 -4.5s-2.66602 -3.5 -3.99902 -5.5l40 -34l-4 -5v0z
M165.999 724.003c0 18 -6.83203 32.499 -20.499 43.499s-29.834 16.5 -48.501 16.5s-34.167 -5.16699 -46.5 -15.5s-18.5 -25.166 -18.5 -44.499v-656c0 -22 6.33301 -37.667 19 -47s27.667 -14.333 45 -15h3.5h2.5c12 0 22.5 2.16699 31.5 6.5s16.5 13.5 22.5 27.5l-52 39
l5 5l49 -38c2 1.33301 3.5 2.83301 4.5 4.5s1.83301 3.5 2.5 5.5s1 3.83301 1 5.5v4.5v1.5v0.5v656v0z" />
    <glyph glyph-name="S" unicode="R" horiz-adv-x="298" 
d="M214 68v198.003c0 2.66699 -0.166992 5.33398 -0.5 8.00098s-0.833008 5.33398 -1.5 8.00098c-2 12 -7.66699 23 -17 33s-23 15 -41 15h-81v-330h-3.5h-4.5v331h-46v4h46v455h91c18 0 33.5 -6.5 46.5 -19.5s19.5 -28.5 19.5 -46.5v-335
c0 -13.333 -3.66699 -25.833 -11 -37.5s-19.666 -18.167 -36.999 -19.5c13.333 -1.33301 24.666 -7.5 33.999 -18.5s14 -26.833 14 -47.5v-198c0 -16.667 3.16699 -29.334 9.5 -38.001s13.5 -14.667 21.5 -18c4.66699 -2.66699 9.5 -4.33398 14.5 -5.00098
s8.83301 -1 11.5 -1l1 -7c-3.33301 0.666992 -6.83301 1.16699 -10.5 1.5s-7.5 1.16602 -11.5 2.49902c-11.333 3.33301 -21.5 9.66602 -30.5 18.999s-13.5 24.666 -13.5 45.999v0zM215 724.003c0 16.667 -5.66699 30.832 -17 42.499s-25 17.5 -41 17.5h-85v-449h81
c18.667 0 33.667 4.83301 45 14.5s17 22.834 17 39.501v335v0z" />
    <glyph glyph-name="T" unicode="S" horiz-adv-x="190" 
d="M170 638l0.000976562 85.001c0 16 -6.83301 30.333 -20.5 43s-30.167 19 -49.5 19c-2 0 -4 -0.166992 -6 -0.5s-4 -0.5 -6 -0.5c-15.333 -2.66699 -29.333 -9 -42 -19s-19 -23.667 -19 -41v-335c0 -22 6.16699 -37.833 18.5 -47.5s25.833 -15.5 40.5 -17.5
c2 -0.666992 4.16699 -1 6.5 -1h6.5h6c2 0 4 -0.333008 6 -1c14 -1.33301 27 -6.16602 39 -14.499s18 -22.5 18 -42.5v-197c0 -18.667 -7.5 -34.334 -22.5 -47.001s-33.167 -19.667 -54.5 -21c-23.333 0 -42 7 -56 21s-21 29.333 -21 46v87h7v-86
c0 -17.333 6.5 -32 19.5 -44s29.833 -18 50.5 -18c19.333 0 36 5.83301 50 17.5s21 26.834 21 45.501v196c0 19.333 -6.33301 33 -19 41s-27 12.333 -43 13c-4.66699 0 -9.5 0.333008 -14.5 1s-10.167 1.66699 -15.5 3c-12.667 3.33301 -24.334 9.83301 -35.001 19.5
s-16 25.167 -16 46.5v335c0 18 5.83301 32.167 17.5 42.5s24.5 17.166 38.5 20.499c4 1.33301 8 2.16602 12 2.49902s7.66699 0.5 11 0.5h0.5h1.5c21.333 -0.666992 39.333 -7 54 -19s22 -27.667 22 -47v-86h-6v0z" />
    <glyph glyph-name="U" unicode="T" horiz-adv-x="193" 
d="M106 784v-784h-10v784h-74v6h155v-6h-71v0z" />
    <glyph glyph-name="V" unicode="U" horiz-adv-x="195" 
d="M98 0c-21.333 0 -40.167 5.83301 -56.5 17.5s-24.5 28.5 -24.5 50.5v722h8v-722c0 -18 7 -32.5 21 -43.5s29.333 -17.167 46 -18.5h2.5h2.5c19.333 0 36.333 5.5 51 16.5s22 25.833 22 44.5v723h8v-723c0 -16 -5.83301 -29.5 -17.5 -40.5s-24.5 -18.5 -38.5 -22.5
c-4 -1.33301 -8 -2.33301 -12 -3s-8 -1 -12 -1v0z" />
    <glyph glyph-name="W" unicode="V" horiz-adv-x="218" 
d="M97 0h-6l-76 790h8l72 -742l99 742h8l-105 -790v0z" />
    <glyph glyph-name="X" unicode="W" horiz-adv-x="353" 
d="M258 0h-5l-70 734l-77 -734h-6l-75 790h9l71 -732l74 732h10l69 -719l73 719h7l-80 -790v0z" />
    <glyph glyph-name="Y" unicode="X" horiz-adv-x="237" 
d="M115 390l96 -390h-9l-94 369l-79 -369h-14l87 390l-86 400h16l77 -382l93 382h12l-99 -400v0z" />
    <glyph glyph-name="Z" unicode="Y" horiz-adv-x="221" 
d="M99 266v-267l-7 1v267l-76 523h11l70 -485l84 485h11l-93 -524v0z" />
    <glyph glyph-name="bracketleft" unicode="Z" horiz-adv-x="190" 
d="M21 5h143v-5h-150v8l153 775h-140v7h149l-155 -785v0z" />
    <glyph glyph-name="backslash" unicode="[" horiz-adv-x="145" 
 />
    <glyph glyph-name="bracketright" unicode="\" horiz-adv-x="145" 
 />
    <glyph glyph-name="asciicircum" unicode="]" horiz-adv-x="145" 
 />
    <glyph glyph-name="underscore" unicode="^" horiz-adv-x="145" 
 />
    <glyph glyph-name="grave" unicode="_" horiz-adv-x="145" 
 />
    <glyph glyph-name="a" unicode="`" horiz-adv-x="145" 
 />
    <glyph glyph-name="b" unicode="a" horiz-adv-x="247" 
d="M217 0l-0.000976562 328h-141v-328h-10v328h-48v7h48v389c0 20 6.83301 35.167 20.5 45.5s28.834 16.833 45.501 19.5c2 0 4.33301 0.166992 7 0.5s5.33398 0.5 8.00098 0.5c4 0 8.16699 -0.333008 12.5 -1s8.5 -1.66699 12.5 -3c13.333 -4 25.666 -11 36.999 -21
s17 -23.667 17 -41v-724h-9v0zM216.999 725c0 11.333 -4.5 21.668 -13.5 31.001s-18.833 16.666 -29.5 21.999c-4 2 -8.16699 3.5 -12.5 4.5s-8.5 1.5 -12.5 1.5v0v0h-1v0h-4.5c-1.66699 0 -3.5 -0.333008 -5.5 -1c-15.333 -2 -29.5 -7.5 -42.5 -16.5
s-19.5 -22.833 -19.5 -41.5v-390h141v390v0z" />
    <glyph glyph-name="c" unicode="b" horiz-adv-x="244" 
d="M160 0l-90.999 -0.00195312v330h-52v5h52v455h87c17.333 0 32.5 -5.66699 45.5 -17s19.5 -27.666 19.5 -48.999v-336c0 -12 -3.33301 -22.333 -10 -31s-17.334 -17 -32.001 -25c12.667 -4 23.5 -10.667 32.5 -20s13.5 -24.666 13.5 -45.999v-198
c0 -18.667 -6.66699 -34.667 -20 -48s-28.333 -20 -45 -20v0zM218.001 264.998c0 14.667 -3.16797 26.5 -9.50098 35.5s-13.166 15.833 -20.499 20.5c-5.33301 3.33301 -10.5 5.66602 -15.5 6.99902s-8.83301 2 -11.5 2h-85v-326h83c14.667 0 27.167 5.33301 37.5 16
s16.833 22.334 19.5 35.001c0.666992 2 1.16699 4.16699 1.5 6.5s0.5 4.5 0.5 6.5v197v0zM213 723.998c0 18.667 -5.5 33.333 -16.5 44s-24.5 16 -40.5 16h-80v-449h84h1.5h1.5c11.333 0.666992 22 6 32 16s16 21 18 33v2.5v2.5v335v0z" />
    <glyph glyph-name="d" unicode="c" horiz-adv-x="186" 
d="M93 0c-3.33301 0 -6.83203 0.166016 -10.499 0.499023s-7.5 0.833008 -11.5 1.5c-13.333 2.66699 -25.666 9 -36.999 19s-17 25.667 -17 47v656c0 21.333 7.16699 37.333 21.5 48s30.166 16.667 47.499 18h2.5h2.5h2.5h2.5c18 -1.33301 34.333 -8.33301 49 -21
s22 -27.667 22 -45v-91h-5v91c0 14.667 -6.66699 28 -20 40s-27.666 19 -42.999 21h-4h-4c-18.667 0 -32.834 -4.16699 -42.501 -12.5s-16.5 -17.833 -20.5 -28.5l-2 -10c-0.666992 -3.33301 -1 -6.66602 -1 -9.99902v-657c0 -20 6 -35 18 -45s25.333 -15.667 40 -17
c2 -0.666992 3.83301 -1 5.5 -1h4.5c19.333 0 36.166 5.66699 50.499 17s21.5 27.333 21.5 48v85h7v-86c0 -18 -6.83301 -33.833 -20.5 -47.5s-31.5 -20.5 -53.5 -20.5h-2h-3v0z" />
    <glyph glyph-name="e" unicode="d" horiz-adv-x="195" 
d="M113 0h-87.999v790h89c17.333 0 33 -6.33301 47 -19s21 -28.667 21 -48v-656c0 -17.333 -5.33301 -32.833 -16 -46.5s-28.334 -20.5 -53.001 -20.5v0zM174.001 724c0 11.333 -3.83301 21.667 -11.5 31s-16.167 16.666 -25.5 21.999c-4 2 -8 3.66699 -12 5
s-7.66699 2 -11 2h-81v-777h79c21.333 0 37 6.33301 47 19s15 26.334 15 41.001v657v0z" />
    <glyph glyph-name="f" unicode="e" horiz-adv-x="230" 
d="M65 0v330h-49v5h48v455h143v-6h-133v-449h137v-5h-137v-324h137v-6h-146v0z" />
    <glyph glyph-name="g" unicode="f" horiz-adv-x="225" 
d="M75 328v-328h-9v328h-46v7h46v455h141v-8h-132v-447h134v-7h-134v0z" />
    <glyph glyph-name="h" unicode="g" horiz-adv-x="195" 
d="M89 0c-19.333 0 -36.668 6.49805 -52.001 19.498s-23 29.167 -23 48.5v656c0 21.333 7.33301 37.333 22 48s31 16.667 49 18h4h4c21.333 0 39.5 -5.66699 54.5 -17s22.5 -27.666 22.5 -48.999v-90h-7v90c0 2 -0.166992 4.33301 -0.5 7s-0.833008 5 -1.5 7
c-4 12 -12 22.833 -24 32.5s-26.667 14.5 -44 14.5c-20.667 0 -37.667 -5.83301 -51 -17.5s-20 -26.167 -20 -43.5v-656c0 -19.333 6.83301 -34.166 20.5 -44.499s29.5 -15.5 47.5 -15.5c21.333 0 39 5.5 53 16.5s21 25.833 21 44.5v261h-51v5h12h19h12h14v-267
c0 -20.667 -8.16699 -37.167 -24.5 -49.5s-35.166 -18.5 -56.499 -18.5v0z" />
    <glyph glyph-name="i" unicode="h" horiz-adv-x="251" 
d="M215 0v328h-145v-328h-8v328h-41v7h40v455h10v-455h143v455h9v-790h-8v0z" />
    <glyph glyph-name="j" unicode="i" horiz-adv-x="52" 
d="M18 0v790h10v-790h-10v0z" />
    <glyph glyph-name="k" unicode="j" horiz-adv-x="188" 
d="M92 0c-20.667 0 -38.667 6.16699 -54 18.5s-23 28.833 -23 49.5v90h9v-90c0 -16 6.5 -30 19.5 -42s28.833 -18.333 47.5 -19h1.5h0.5h2.5h2.5c16.667 1.33301 31.667 7.5 45 18.5s20 25.167 20 42.5v722h11v-722c0 -20 -7.16699 -35.667 -21.5 -47s-29.833 -18 -46.5 -20
c-2.66699 -0.666992 -5.16699 -1 -7.5 -1h-6.5v0z" />
    <glyph glyph-name="l" unicode="k" horiz-adv-x="243" 
d="M215 0l0.00195312 265.998c0 2.66699 -0.333008 5.33398 -1 8.00098l-2 8c-4.66699 11.333 -13.834 21.833 -27.501 31.5s-29.834 14.5 -48.501 14.5h-61v-328h-9v328h-48v7h48v455h8v-455h59l76 455h7l-74 -454c22.667 -1.33301 41.667 -8.66602 57 -21.999
s23 -29.333 23 -48v-266h-7v0z" />
    <glyph glyph-name="m" unicode="l" horiz-adv-x="170" 
d="M14 0v790h8v-784h132v-6h-140v0z" />
    <glyph glyph-name="n" unicode="m" horiz-adv-x="354" 
d="M316 0l0.000976562 722.999c0 16 -6.16699 29.5 -18.5 40.5s-27.5 17.167 -45.5 18.5h-2.5h-3.5c-18 0 -33.667 -5.5 -47 -16.5s-20 -24.833 -20 -41.5v-724h-11v725c0 16.667 -7.33301 30.334 -22 41.001s-32.334 16.334 -53.001 17.001h-1.5h-1.5
c-16.667 0 -31.167 -5.5 -43.5 -16.5s-18.5 -24.833 -18.5 -41.5v-725h-10v725c0 19.333 7.83301 35 23.5 47s33.167 18 52.5 18c15.333 0 30.333 -3.5 45 -10.5s26.667 -19.833 36 -38.5c4 13.333 10.333 23.333 19 30s18 11.667 28 15
c5.33301 1.33301 10.5 2.33301 15.5 3s9.83301 1 14.5 1c19.333 -0.666992 36.5 -7.33398 51.5 -20.001s22.5 -28 22.5 -46v-724h-10v0z" />
    <glyph glyph-name="o" unicode="n" horiz-adv-x="209" 
d="M174 0l-138 735v-735h-10v790h11l140 -753v753h9v-790h-12v0z" />
    <glyph glyph-name="p" unicode="o" horiz-adv-x="202" 
d="M100 0c-20.667 0.666992 -39.334 5.50195 -56.001 14.502s-25 27.167 -25 54.5v655c0 19.333 8.33301 35.166 25 47.499s35.667 18.5 57 18.5s39.5 -6.33301 54.5 -19s22.5 -28.334 22.5 -47.001v-656c0 -26 -7.16699 -43.667 -21.5 -53s-30.166 -14.333 -47.499 -15
h-2.5h-2.5h-2h-2v0zM169 724.002c0 17.333 -6.5 31.501 -19.5 42.501s-27.5 17.167 -43.5 18.5h-2.5h-2.5h-2.5h-2.5c-16.667 -1.33301 -32 -7.83301 -46 -19.5s-21 -25.167 -21 -40.5v-656c0 -20.667 6.16699 -36.334 18.5 -47.001s29.833 -16 52.5 -16
c22 0 39 5.33301 51 16s18 26 18 46v656v0z" />
    <glyph glyph-name="q" unicode="p" horiz-adv-x="250" 
d="M147 328h-75.001v-328h-9v328h-48v7h48v455h85h8.5c3 0 6.16699 -0.333008 9.5 -1c13.333 -1.33301 25.5 -6.5 36.5 -15.5s16.5 -25.5 16.5 -49.5v-334c0 -17.333 -5.66699 -32 -17 -44s-29.666 -18 -54.999 -18v0zM209.999 724c0 24.667 -6.33301 40.833 -19 48.5
s-27 11.5 -43 11.5h-76v-449h74c18 0 33.167 4.5 45.5 13.5s18.5 22.833 18.5 41.5v334v0z" />
    <glyph glyph-name="r" unicode="q" horiz-adv-x="207" 
d="M201 2l-40.001 33.0029c-6 -9.33301 -12.833 -16.5 -20.5 -21.5s-15.167 -8.5 -22.5 -10.5c-4 -1.33301 -7.83301 -2.16602 -11.5 -2.49902s-7.5 -0.5 -11.5 -0.5c-20.667 0 -37.667 5 -51 15s-20 27.667 -20 53v657c0 22 7 38 21 48s29.333 15.667 46 17h2.5h2.5h2.5
h2.5c18.667 -0.666992 35.5 -6.33398 50.5 -17.001s22.5 -27.334 22.5 -50.001v-656c0 -2.66699 -0.166992 -5.33398 -0.5 -8.00098s-0.833008 -5.33398 -1.5 -8.00098c-0.666992 -1.33301 -1.66699 -2.83301 -3 -4.5s-2.66602 -3.5 -3.99902 -5.5l40 -34l-4 -5v0z
M165.999 724.003c0 18 -6.83203 32.499 -20.499 43.499s-29.834 16.5 -48.501 16.5s-34.167 -5.16699 -46.5 -15.5s-18.5 -25.166 -18.5 -44.499v-656c0 -22 6.33301 -37.667 19 -47s27.667 -14.333 45 -15h3.5h2.5c12 0 22.5 2.16699 31.5 6.5s16.5 13.5 22.5 27.5l-52 39
l5 5l49 -38c2 1.33301 3.5 2.83301 4.5 4.5s1.83301 3.5 2.5 5.5s1 3.83301 1 5.5v4.5v1.5v0.5v656v0z" />
    <glyph glyph-name="s" unicode="r" horiz-adv-x="298" 
d="M214 68v198.003c0 2.66699 -0.166992 5.33398 -0.5 8.00098s-0.833008 5.33398 -1.5 8.00098c-2 12 -7.66699 23 -17 33s-23 15 -41 15h-81v-330h-3.5h-4.5v331h-46v4h46v455h91c18 0 33.5 -6.5 46.5 -19.5s19.5 -28.5 19.5 -46.5v-335
c0 -13.333 -3.66699 -25.833 -11 -37.5s-19.666 -18.167 -36.999 -19.5c13.333 -1.33301 24.666 -7.5 33.999 -18.5s14 -26.833 14 -47.5v-198c0 -16.667 3.16699 -29.334 9.5 -38.001s13.5 -14.667 21.5 -18c4.66699 -2.66699 9.5 -4.33398 14.5 -5.00098
s8.83301 -1 11.5 -1l1 -7c-3.33301 0.666992 -6.83301 1.16699 -10.5 1.5s-7.5 1.16602 -11.5 2.49902c-11.333 3.33301 -21.5 9.66602 -30.5 18.999s-13.5 24.666 -13.5 45.999v0zM215 724.003c0 16.667 -5.66699 30.832 -17 42.499s-25 17.5 -41 17.5h-85v-449h81
c18.667 0 33.667 4.83301 45 14.5s17 22.834 17 39.501v335v0z" />
    <glyph glyph-name="t" unicode="s" horiz-adv-x="190" 
d="M170 638l0.000976562 85.001c0 16 -6.83301 30.333 -20.5 43s-30.167 19 -49.5 19c-2 0 -4 -0.166992 -6 -0.5s-4 -0.5 -6 -0.5c-15.333 -2.66699 -29.333 -9 -42 -19s-19 -23.667 -19 -41v-335c0 -22 6.16699 -37.833 18.5 -47.5s25.833 -15.5 40.5 -17.5
c2 -0.666992 4.16699 -1 6.5 -1h6.5h6c2 0 4 -0.333008 6 -1c14 -1.33301 27 -6.16602 39 -14.499s18 -22.5 18 -42.5v-197c0 -18.667 -7.5 -34.334 -22.5 -47.001s-33.167 -19.667 -54.5 -21c-23.333 0 -42 7 -56 21s-21 29.333 -21 46v87h7v-86
c0 -17.333 6.5 -32 19.5 -44s29.833 -18 50.5 -18c19.333 0 36 5.83301 50 17.5s21 26.834 21 45.501v196c0 19.333 -6.33301 33 -19 41s-27 12.333 -43 13c-4.66699 0 -9.5 0.333008 -14.5 1s-10.167 1.66699 -15.5 3c-12.667 3.33301 -24.334 9.83301 -35.001 19.5
s-16 25.167 -16 46.5v335c0 18 5.83301 32.167 17.5 42.5s24.5 17.166 38.5 20.499c4 1.33301 8 2.16602 12 2.49902s7.66699 0.5 11 0.5h0.5h1.5c21.333 -0.666992 39.333 -7 54 -19s22 -27.667 22 -47v-86h-6v0z" />
    <glyph glyph-name="u" unicode="t" horiz-adv-x="193" 
d="M106 784v-784h-10v784h-74v6h155v-6h-71v0z" />
    <glyph glyph-name="v" unicode="u" horiz-adv-x="195" 
d="M98 0c-21.333 0 -40.167 5.83301 -56.5 17.5s-24.5 28.5 -24.5 50.5v722h8v-722c0 -18 7 -32.5 21 -43.5s29.333 -17.167 46 -18.5h2.5h2.5c19.333 0 36.333 5.5 51 16.5s22 25.833 22 44.5v723h8v-723c0 -16 -5.83301 -29.5 -17.5 -40.5s-24.5 -18.5 -38.5 -22.5
c-4 -1.33301 -8 -2.33301 -12 -3s-8 -1 -12 -1v0z" />
    <glyph glyph-name="w" unicode="v" horiz-adv-x="218" 
d="M97 0h-6l-76 790h8l72 -742l99 742h8l-105 -790v0z" />
    <glyph glyph-name="x" unicode="w" horiz-adv-x="358" 
d="M255 0c-15.333 0 -30.1689 3.66992 -44.502 11.0029s-26.166 20.333 -35.499 39c-5.33301 -12.667 -12.333 -22.5 -21 -29.5s-17.667 -12.167 -27 -15.5c-5.33301 -2 -10.5 -3.33301 -15.5 -4s-9.83301 -1 -14.5 -1c-19.333 1.33301 -36.5 8.16602 -51.5 20.499
s-22.5 27.5 -22.5 45.5v724h10v-723c0 -16 6.16699 -29.667 18.5 -41s27.5 -17.333 45.5 -18h1.5h1.5c18.667 0 35 5.66699 49 17s21 25 21 41v724h11v-725c0 -16.667 7.33301 -30.334 22 -41.001s32.334 -16.334 53.001 -17.001h1.5h1.5c17.333 0 32 5.5 44 16.5
s18 24.833 18 41.5v725h10v-725c0 -18.667 -7.83301 -34.167 -23.5 -46.5s-33.167 -18.5 -52.5 -18.5v0z" />
    <glyph glyph-name="y" unicode="x" horiz-adv-x="237" 
d="M115 390l96 -390h-9l-94 369l-79 -369h-14l87 390l-86 400h16l77 -382l93 382h12l-99 -400v0z" />
    <glyph glyph-name="z" unicode="y" horiz-adv-x="194" 
d="M93 0c-22.667 0 -41.5 6.83203 -56.5 20.499s-22.5 29.834 -22.5 48.501v88h11v-87v-1.5v-1.5c0.666992 -14.667 6.66699 -28.334 18 -41.001s27.666 -19 48.999 -19c22 0 39.333 5.66699 52 17s19 26.333 19 45v298c-8 -12.667 -17 -21.334 -27 -26.001
s-20 -7.66699 -30 -9c-2 0 -4 -0.166992 -6 -0.5s-4 -0.5 -6 -0.5h-1.5h-1.5c-2.66699 0 -5.66699 0.166992 -9 0.5s-6.66602 0.833008 -9.99902 1.5c-12 2.66699 -23.167 8.33398 -33.5 17.001s-15.5 21.667 -15.5 39v401h10v-400c0 -16.667 6 -29.667 18 -39
s26 -14 42 -14c18 0 32.833 4.33301 44.5 13s19.167 18.334 22.5 29.001c0.666992 2 1.16699 3.83301 1.5 5.5s0.5 3.5 0.5 5.5v400h11v-724c0 -20 -8 -36 -24 -48s-34.667 -18 -56 -18v0z" />
    <glyph glyph-name="braceleft" unicode="z" horiz-adv-x="190" 
d="M21 5h143v-5h-150v8l153 775h-140v7h149l-155 -785v0z" />
    <glyph glyph-name="bar" unicode="{" horiz-adv-x="145" 
 />
    <glyph glyph-name="braceright" unicode="|" horiz-adv-x="145" 
 />
    <glyph glyph-name="asciitilde" unicode="}" horiz-adv-x="145" 
 />
    <glyph glyph-name="bullet" unicode="~" horiz-adv-x="145" 
 />
    <glyph glyph-name="exclamdown" unicode="&#xa1;" 
 />
    <glyph glyph-name="cent" unicode="&#xa2;" 
 />
    <glyph glyph-name="sterling" unicode="&#xa3;" 
 />
    <glyph glyph-name="currency" unicode="&#xa4;" 
 />
    <glyph glyph-name="yen" unicode="&#xa5;" 
 />
    <glyph glyph-name="brokenbar" unicode="&#xa6;" 
 />
    <glyph glyph-name="section" unicode="&#xa7;" 
 />
    <glyph glyph-name="dieresis" unicode="&#xa8;" 
 />
    <glyph glyph-name="copyright" unicode="&#xa9;" 
 />
    <glyph glyph-name="ordfeminine" unicode="&#xaa;" 
 />
    <glyph glyph-name="guillemotleft" unicode="&#xab;" 
 />
    <glyph glyph-name="logicalnot" unicode="&#xac;" 
 />
    <glyph glyph-name="uni00AD" unicode="&#xad;" 
 />
    <glyph glyph-name="registered" unicode="&#xae;" 
 />
    <glyph glyph-name="macron" unicode="&#xaf;" 
 />
    <glyph glyph-name="degree" unicode="&#xb0;" 
 />
    <glyph glyph-name="plusminus" unicode="&#xb1;" 
 />
    <glyph glyph-name="uni00B2" unicode="&#xb2;" 
 />
    <glyph glyph-name="uni00B3" unicode="&#xb3;" 
 />
    <glyph glyph-name="acute" unicode="&#xb4;" 
 />
    <glyph glyph-name="uni00B5" unicode="&#xb5;" 
 />
    <glyph glyph-name="paragraph" unicode="&#xb6;" 
 />
    <glyph glyph-name="periodcentered" unicode="&#xb7;" 
 />
    <glyph glyph-name="cedilla" unicode="&#xb8;" 
 />
    <glyph glyph-name="uni00B9" unicode="&#xb9;" 
 />
    <glyph glyph-name="ordmasculine" unicode="&#xba;" 
 />
    <glyph glyph-name="guillemotright" unicode="&#xbb;" 
 />
    <glyph glyph-name="onequarter" unicode="&#xbc;" 
 />
    <glyph glyph-name="onehalf" unicode="&#xbd;" 
 />
    <glyph glyph-name="threequarters" unicode="&#xbe;" 
 />
    <glyph glyph-name="questiondown" unicode="&#xbf;" 
 />
    <glyph glyph-name="Agrave" unicode="&#xc0;" 
 />
    <glyph glyph-name="Aacute" unicode="&#xc1;" 
 />
    <glyph glyph-name="Acircumflex" unicode="&#xc2;" 
 />
    <glyph glyph-name="Atilde" unicode="&#xc3;" 
 />
    <glyph glyph-name="Adieresis" unicode="&#xc4;" 
 />
    <glyph glyph-name="Aring" unicode="&#xc5;" 
 />
    <glyph glyph-name="AE" unicode="&#xc6;" 
 />
    <glyph glyph-name="Ccedilla" unicode="&#xc7;" 
 />
    <glyph glyph-name="Egrave" unicode="&#xc8;" 
 />
    <glyph glyph-name="Eacute" unicode="&#xc9;" 
 />
    <glyph glyph-name="Ecircumflex" unicode="&#xca;" 
 />
    <glyph glyph-name="Edieresis" unicode="&#xcb;" 
 />
    <glyph glyph-name="Igrave" unicode="&#xcc;" 
 />
    <glyph glyph-name="Iacute" unicode="&#xcd;" 
 />
    <glyph glyph-name="Icircumflex" unicode="&#xce;" 
 />
    <glyph glyph-name="Idieresis" unicode="&#xcf;" 
 />
    <glyph glyph-name="Eth" unicode="&#xd0;" 
 />
    <glyph glyph-name="Ntilde" unicode="&#xd1;" 
 />
    <glyph glyph-name="Ograve" unicode="&#xd2;" 
 />
    <glyph glyph-name="Oacute" unicode="&#xd3;" 
 />
    <glyph glyph-name="Ocircumflex" unicode="&#xd4;" 
 />
    <glyph glyph-name="Otilde" unicode="&#xd5;" 
 />
    <glyph glyph-name="Odieresis" unicode="&#xd6;" 
 />
    <glyph glyph-name="multiply" unicode="&#xd7;" 
 />
    <glyph glyph-name="Oslash" unicode="&#xd8;" 
 />
    <glyph glyph-name="Ugrave" unicode="&#xd9;" 
 />
    <glyph glyph-name="Uacute" unicode="&#xda;" 
 />
    <glyph glyph-name="Ucircumflex" unicode="&#xdb;" 
 />
    <glyph glyph-name="Udieresis" unicode="&#xdc;" 
 />
    <glyph glyph-name="Yacute" unicode="&#xdd;" 
 />
    <glyph glyph-name="Thorn" unicode="&#xde;" 
 />
    <glyph glyph-name="germandbls" unicode="&#xdf;" 
 />
    <glyph glyph-name="agrave" unicode="&#xe0;" 
 />
    <glyph glyph-name="aacute" unicode="&#xe1;" 
 />
    <glyph glyph-name="acircumflex" unicode="&#xe2;" 
 />
    <glyph glyph-name="atilde" unicode="&#xe3;" 
 />
    <glyph glyph-name="adieresis" unicode="&#xe4;" 
 />
    <glyph glyph-name="aring" unicode="&#xe5;" 
 />
    <glyph glyph-name="ae" unicode="&#xe6;" 
 />
    <glyph glyph-name="ccedilla" unicode="&#xe7;" 
 />
    <glyph glyph-name="egrave" unicode="&#xe8;" 
 />
    <glyph glyph-name="eacute" unicode="&#xe9;" 
 />
    <glyph glyph-name="ecircumflex" unicode="&#xea;" 
 />
    <glyph glyph-name="edieresis" unicode="&#xeb;" 
 />
    <glyph glyph-name="igrave" unicode="&#xec;" 
 />
    <glyph glyph-name="iacute" unicode="&#xed;" 
 />
    <glyph glyph-name="icircumflex" unicode="&#xee;" 
 />
    <glyph glyph-name="idieresis" unicode="&#xef;" 
 />
    <glyph glyph-name="eth" unicode="&#xf0;" 
 />
    <glyph glyph-name="ntilde" unicode="&#xf1;" 
 />
    <glyph glyph-name="ograve" unicode="&#xf2;" 
 />
    <glyph glyph-name="oacute" unicode="&#xf3;" 
 />
    <glyph glyph-name="ocircumflex" unicode="&#xf4;" 
 />
    <glyph glyph-name="otilde" unicode="&#xf5;" 
 />
    <glyph glyph-name="odieresis" unicode="&#xf6;" 
 />
    <glyph glyph-name="divide" unicode="&#xf7;" 
 />
    <glyph glyph-name="oslash" unicode="&#xf8;" 
 />
    <glyph glyph-name="ugrave" unicode="&#xf9;" 
 />
    <glyph glyph-name="uacute" unicode="&#xfa;" 
 />
    <glyph glyph-name="ucircumflex" unicode="&#xfb;" 
 />
    <glyph glyph-name="udieresis" unicode="&#xfc;" 
 />
    <glyph glyph-name="yacute" unicode="&#xfd;" 
 />
    <glyph glyph-name="thorn" unicode="&#xfe;" 
 />
    <glyph glyph-name="ydieresis" unicode="&#xff;" 
 />
    <glyph glyph-name="Abreve" unicode="&#x102;" 
 />
    <glyph glyph-name="abreve" unicode="&#x103;" 
 />
    <glyph glyph-name="Aogonek" unicode="&#x104;" 
 />
    <glyph glyph-name="aogonek" unicode="&#x105;" 
 />
    <glyph glyph-name="Cacute" unicode="&#x106;" 
 />
    <glyph glyph-name="cacute" unicode="&#x107;" 
 />
    <glyph glyph-name="Ccaron" unicode="&#x10c;" 
 />
    <glyph glyph-name="ccaron" unicode="&#x10d;" 
 />
    <glyph glyph-name="Dcaron" unicode="&#x10e;" 
 />
    <glyph glyph-name="dcaron" unicode="&#x10f;" 
 />
    <glyph glyph-name="Dcroat" unicode="&#x110;" 
 />
    <glyph glyph-name="dcroat" unicode="&#x111;" 
 />
    <glyph glyph-name="Eogonek" unicode="&#x118;" 
 />
    <glyph glyph-name="eogonek" unicode="&#x119;" 
 />
    <glyph glyph-name="Ecaron" unicode="&#x11a;" 
 />
    <glyph glyph-name="ecaron" unicode="&#x11b;" 
 />
    <glyph glyph-name="Gbreve" unicode="&#x11e;" 
 />
    <glyph glyph-name="gbreve" unicode="&#x11f;" 
 />
    <glyph glyph-name="Idotaccent" unicode="&#x130;" 
 />
    <glyph glyph-name="dotlessi" unicode="&#x131;" 
 />
    <glyph glyph-name="Lacute" unicode="&#x139;" 
 />
    <glyph glyph-name="lacute" unicode="&#x13a;" 
 />
    <glyph glyph-name="Lcaron" unicode="&#x13d;" 
 />
    <glyph glyph-name="lcaron" unicode="&#x13e;" 
 />
    <glyph glyph-name="Ldot" unicode="&#x13f;" 
 />
    <glyph glyph-name="ldot" unicode="&#x140;" 
 />
    <glyph glyph-name="Lslash" unicode="&#x141;" 
 />
    <glyph glyph-name="lslash" unicode="&#x142;" 
 />
    <glyph glyph-name="Nacute" unicode="&#x143;" 
 />
    <glyph glyph-name="nacute" unicode="&#x144;" 
 />
    <glyph glyph-name="Ncaron" unicode="&#x147;" 
 />
    <glyph glyph-name="ncaron" unicode="&#x148;" 
 />
    <glyph glyph-name="Ohungarumlaut" unicode="&#x150;" 
 />
    <glyph glyph-name="ohungarumlaut" unicode="&#x151;" 
 />
    <glyph glyph-name="OE" unicode="&#x152;" 
 />
    <glyph glyph-name="oe" unicode="&#x153;" 
 />
    <glyph glyph-name="Racute" unicode="&#x154;" 
 />
    <glyph glyph-name="racute" unicode="&#x155;" 
 />
    <glyph glyph-name="Rcaron" unicode="&#x158;" 
 />
    <glyph glyph-name="rcaron" unicode="&#x159;" 
 />
    <glyph glyph-name="Sacute" unicode="&#x15a;" 
 />
    <glyph glyph-name="sacute" unicode="&#x15b;" 
 />
    <glyph glyph-name="Scedilla" unicode="&#x15e;" 
 />
    <glyph glyph-name="scedilla" unicode="&#x15f;" 
 />
    <glyph glyph-name="Scaron" unicode="&#x160;" 
 />
    <glyph glyph-name="scaron" unicode="&#x161;" 
 />
    <glyph glyph-name="Tcommaaccent" unicode="&#x162;" 
 />
    <glyph glyph-name="tcommaaccent" unicode="&#x163;" 
 />
    <glyph glyph-name="Tcaron" unicode="&#x164;" 
 />
    <glyph glyph-name="tcaron" unicode="&#x165;" 
 />
    <glyph glyph-name="Uring" unicode="&#x16e;" 
 />
    <glyph glyph-name="uring" unicode="&#x16f;" 
 />
    <glyph glyph-name="Uhungarumlaut" unicode="&#x170;" 
 />
    <glyph glyph-name="uhungarumlaut" unicode="&#x171;" 
 />
    <glyph glyph-name="Ydieresis" unicode="&#x178;" 
 />
    <glyph glyph-name="Zacute" unicode="&#x179;" 
 />
    <glyph glyph-name="zacute" unicode="&#x17a;" 
 />
    <glyph glyph-name="Zdotaccent" unicode="&#x17b;" 
 />
    <glyph glyph-name="zdotaccent" unicode="&#x17c;" 
 />
    <glyph glyph-name="Zcaron" unicode="&#x17d;" 
 />
    <glyph glyph-name="zcaron" unicode="&#x17e;" 
 />
    <glyph glyph-name="florin" unicode="&#x192;" 
 />
    <glyph glyph-name="uni02BA" unicode="&#x2ba;" 
 />
    <glyph glyph-name="circumflex" unicode="&#x2c6;" 
 />
    <glyph glyph-name="caron" unicode="&#x2c7;" 
 />
    <glyph glyph-name="uni02C9" unicode="&#x2c9;" 
 />
    <glyph glyph-name="breve" unicode="&#x2d8;" 
 />
    <glyph glyph-name="dotaccent" unicode="&#x2d9;" 
 />
    <glyph glyph-name="ring" unicode="&#x2da;" 
 />
    <glyph glyph-name="ogonek" unicode="&#x2db;" 
 />
    <glyph glyph-name="tilde" unicode="&#x2dc;" 
 />
    <glyph glyph-name="Gamma" unicode="&#x393;" 
 />
    <glyph glyph-name="Theta" unicode="&#x398;" 
 />
    <glyph glyph-name="Sigma" unicode="&#x3a3;" 
 />
    <glyph glyph-name="Phi" unicode="&#x3a6;" 
 />
    <glyph glyph-name="Omega" unicode="&#x3a9;" 
 />
    <glyph glyph-name="alpha" unicode="&#x3b1;" 
 />
    <glyph glyph-name="delta" unicode="&#x3b4;" 
 />
    <glyph glyph-name="epsilon" unicode="&#x3b5;" 
 />
    <glyph glyph-name="pi" unicode="&#x3c0;" 
 />
    <glyph glyph-name="sigma" unicode="&#x3c3;" 
 />
    <glyph glyph-name="tau" unicode="&#x3c4;" 
 />
    <glyph glyph-name="phi" unicode="&#x3c6;" 
 />
    <glyph glyph-name="endash" unicode="&#x2013;" 
 />
    <glyph glyph-name="emdash" unicode="&#x2014;" 
 />
    <glyph glyph-name="underscoredbl" unicode="&#x2017;" 
 />
    <glyph glyph-name="quoteleft" unicode="&#x2018;" 
 />
    <glyph glyph-name="quoteright" unicode="&#x2019;" 
 />
    <glyph glyph-name="quotesinglbase" unicode="&#x201a;" 
 />
    <glyph glyph-name="quotedblleft" unicode="&#x201c;" 
 />
    <glyph glyph-name="quotedblright" unicode="&#x201d;" 
 />
    <glyph glyph-name="quotedblbase" unicode="&#x201e;" 
 />
    <glyph glyph-name="dagger" unicode="&#x2020;" 
 />
    <glyph glyph-name="daggerdbl" unicode="&#x2021;" 
 />
    <glyph glyph-name="glyph262" unicode="&#x2022;" 
 />
    <glyph glyph-name="ellipsis" unicode="&#x2026;" 
 />
    <glyph glyph-name="perthousand" unicode="&#x2030;" 
 />
    <glyph glyph-name="guilsinglleft" unicode="&#x2039;" 
 />
    <glyph glyph-name="guilsinglright" unicode="&#x203a;" 
 />
    <glyph glyph-name="exclamdbl" unicode="&#x203c;" 
 />
    <glyph glyph-name="uni207F" unicode="&#x207f;" 
 />
    <glyph glyph-name="franc" unicode="&#x20a3;" 
 />
    <glyph glyph-name="peseta" unicode="&#x20a7;" 
 />
    <glyph glyph-name="trademark" unicode="&#x2122;" 
 />
    <glyph glyph-name="arrowleft" unicode="&#x2190;" 
 />
    <glyph glyph-name="arrowup" unicode="&#x2191;" 
 />
    <glyph glyph-name="arrowright" unicode="&#x2192;" 
 />
    <glyph glyph-name="arrowdown" unicode="&#x2193;" 
 />
    <glyph glyph-name="arrowboth" unicode="&#x2194;" 
 />
    <glyph glyph-name="arrowupdn" unicode="&#x2195;" 
 />
    <glyph glyph-name="arrowupdnbse" unicode="&#x21a8;" 
 />
    <glyph glyph-name="partialdiff" unicode="&#x2202;" 
 />
    <glyph glyph-name="uni2206" unicode="&#x2206;" 
 />
    <glyph glyph-name="product" unicode="&#x220f;" 
 />
    <glyph glyph-name="minus" unicode="&#x2212;" 
 />
    <glyph glyph-name="uni2215" unicode="&#x2215;" 
 />
    <glyph glyph-name="uni2219" unicode="&#x2219;" 
 />
    <glyph glyph-name="radical" unicode="&#x221a;" 
 />
    <glyph glyph-name="infinity" unicode="&#x221e;" 
 />
    <glyph glyph-name="orthogonal" unicode="&#x221f;" 
 />
    <glyph glyph-name="intersection" unicode="&#x2229;" 
 />
    <glyph glyph-name="integral" unicode="&#x222b;" 
 />
    <glyph glyph-name="approxequal" unicode="&#x2248;" 
 />
    <glyph glyph-name="notequal" unicode="&#x2260;" 
 />
    <glyph glyph-name="equivalence" unicode="&#x2261;" 
 />
    <glyph glyph-name="lessequal" unicode="&#x2264;" 
 />
    <glyph glyph-name="greaterequal" unicode="&#x2265;" 
 />
    <glyph glyph-name="house" unicode="&#x2302;" 
 />
    <glyph glyph-name="revlogicalnot" unicode="&#x2310;" 
 />
    <glyph glyph-name="integraltp" unicode="&#x2320;" 
 />
    <glyph glyph-name="integralbt" unicode="&#x2321;" 
 />
    <glyph glyph-name="SF100000" unicode="&#x2500;" 
 />
    <glyph glyph-name="SF110000" unicode="&#x2502;" 
 />
    <glyph glyph-name="SF010000" unicode="&#x250c;" 
 />
    <glyph glyph-name="SF030000" unicode="&#x2510;" 
 />
    <glyph glyph-name="SF020000" unicode="&#x2514;" 
 />
    <glyph glyph-name="SF040000" unicode="&#x2518;" 
 />
    <glyph glyph-name="SF080000" unicode="&#x251c;" 
 />
    <glyph glyph-name="SF090000" unicode="&#x2524;" 
 />
    <glyph glyph-name="SF060000" unicode="&#x252c;" 
 />
    <glyph glyph-name="SF070000" unicode="&#x2534;" 
 />
    <glyph glyph-name="SF050000" unicode="&#x253c;" 
 />
    <glyph glyph-name="SF430000" unicode="&#x2550;" 
 />
    <glyph glyph-name="SF240000" unicode="&#x2551;" 
 />
    <glyph glyph-name="SF510000" unicode="&#x2552;" 
 />
    <glyph glyph-name="SF520000" unicode="&#x2553;" 
 />
    <glyph glyph-name="SF390000" unicode="&#x2554;" 
 />
    <glyph glyph-name="SF220000" unicode="&#x2555;" 
 />
    <glyph glyph-name="SF210000" unicode="&#x2556;" 
 />
    <glyph glyph-name="SF250000" unicode="&#x2557;" 
 />
    <glyph glyph-name="SF500000" unicode="&#x2558;" 
 />
    <glyph glyph-name="SF490000" unicode="&#x2559;" 
 />
    <glyph glyph-name="SF380000" unicode="&#x255a;" 
 />
    <glyph glyph-name="SF280000" unicode="&#x255b;" 
 />
    <glyph glyph-name="SF270000" unicode="&#x255c;" 
 />
    <glyph glyph-name="SF260000" unicode="&#x255d;" 
 />
    <glyph glyph-name="SF360000" unicode="&#x255e;" 
 />
    <glyph glyph-name="SF370000" unicode="&#x255f;" 
 />
    <glyph glyph-name="SF420000" unicode="&#x2560;" 
 />
    <glyph glyph-name="SF190000" unicode="&#x2561;" 
 />
    <glyph glyph-name="SF200000" unicode="&#x2562;" 
 />
    <glyph glyph-name="SF230000" unicode="&#x2563;" 
 />
    <glyph glyph-name="SF470000" unicode="&#x2564;" 
 />
    <glyph glyph-name="SF480000" unicode="&#x2565;" 
 />
    <glyph glyph-name="SF410000" unicode="&#x2566;" 
 />
    <glyph glyph-name="SF450000" unicode="&#x2567;" 
 />
    <glyph glyph-name="SF460000" unicode="&#x2568;" 
 />
    <glyph glyph-name="SF400000" unicode="&#x2569;" 
 />
    <glyph glyph-name="SF540000" unicode="&#x256a;" 
 />
    <glyph glyph-name="SF530000" unicode="&#x256b;" 
 />
    <glyph glyph-name="SF440000" unicode="&#x256c;" 
 />
    <glyph glyph-name="upblock" unicode="&#x2580;" 
 />
    <glyph glyph-name="dnblock" unicode="&#x2584;" 
 />
    <glyph glyph-name="block" unicode="&#x2588;" 
 />
    <glyph glyph-name="lfblock" unicode="&#x258c;" 
 />
    <glyph glyph-name="rtblock" unicode="&#x2590;" 
 />
    <glyph glyph-name="ltshade" unicode="&#x2591;" 
 />
    <glyph glyph-name="shade" unicode="&#x2592;" 
 />
    <glyph glyph-name="dkshade" unicode="&#x2593;" 
 />
    <glyph glyph-name="filledbox" unicode="&#x25a0;" 
 />
    <glyph glyph-name="filledrect" unicode="&#x25ac;" 
 />
    <glyph glyph-name="triagup" unicode="&#x25b2;" 
 />
    <glyph glyph-name="triagrt" unicode="&#x25ba;" 
 />
    <glyph glyph-name="triagdn" unicode="&#x25bc;" 
 />
    <glyph glyph-name="triaglf" unicode="&#x25c4;" 
 />
    <glyph glyph-name="lozenge" unicode="&#x25ca;" 
 />
    <glyph glyph-name="circle" unicode="&#x25cb;" 
 />
    <glyph glyph-name="invbullet" unicode="&#x25d8;" 
 />
    <glyph glyph-name="invcircle" unicode="&#x25d9;" 
 />
    <glyph glyph-name="smileface" unicode="&#x263a;" 
 />
    <glyph glyph-name="invsmileface" unicode="&#x263b;" 
 />
    <glyph glyph-name="sun" unicode="&#x263c;" 
 />
    <glyph glyph-name="female" unicode="&#x2640;" 
 />
    <glyph glyph-name="male" unicode="&#x2642;" 
 />
    <glyph glyph-name="spade" unicode="&#x2660;" 
 />
    <glyph glyph-name="club" unicode="&#x2663;" 
 />
    <glyph glyph-name="heart" unicode="&#x2665;" 
 />
    <glyph glyph-name="diamond" unicode="&#x2666;" 
 />
    <glyph glyph-name="musicalnote" unicode="&#x266a;" 
 />
    <glyph glyph-name="musicalnotedbl" unicode="&#x266b;" 
 />
    <glyph glyph-name="uniF000" unicode="&#xf000;" 
 />
    <glyph glyph-name="uniF001" unicode="&#xf001;" 
 />
    <glyph glyph-name="uniF002" unicode="&#xf002;" 
 />
    <glyph glyph-name="glyph1" horiz-adv-x="0" 
 />
    <glyph glyph-name="space" horiz-adv-x="145" 
 />
    <glyph glyph-name="glyph131" 
 />
    <glyph glyph-name="glyph135" horiz-adv-x="500" 
 />
    <glyph glyph-name="glyph177" 
 />
    </font>
</defs>
</svg>
